<svg xmlns="http://www.w3.org/2000/svg" xmlns:xlink="http://www.w3.org/1999/xlink" width="500" height="140" viewBox="0 0 500 140"><defs><linearGradient id="linear-gradient" y1="70" x2="500" y2="70" gradientUnits="userSpaceOnUse"><stop offset="0" stop-color="#c33764"/><stop offset="0.13" stop-color="#c03869"/><stop offset="0.3" stop-color="#b63b79"/><stop offset="0.49" stop-color="#a74192"/><stop offset="0.69" stop-color="#9149b6"/><stop offset="0.89" stop-color="#7652e3"/><stop offset="1" stop-color="#6658fe"/></linearGradient></defs><g id="Layer_2" data-name="Layer 2"><g id="Layer_1-2" data-name="Layer 1"><rect width="500" height="140" fill="url(#linear-gradient)"/><path d="M11.86,26.22h52L35.82,89.6H61.41v17.2H7.87L35.7,43.49H11.86Z" fill="#fff"/><path d="M72.7,34.61A9,9,0,0,1,75.42,28a9.27,9.27,0,0,1,15.81,6.58,9.27,9.27,0,0,1-18.53,0Zm.48,16.66H90.75V106.8H73.18Z" fill="#fff"/><path d="M122.07,51.27v7.06h.31q5.85-8.62,13.22-8.63,7.91,0,12.7,8.06t4.8,21.7q0,13.16-4.92,21.25t-12.58,8.08q-8.1,0-13.22-9.29h-.31v30.18h-17.5V51.27ZM135.6,78.86q0-13.71-6.95-13.71-6.57,0-6.58,13.83,0,14.24,6.58,14.24Q135.6,93.22,135.6,78.86Z" fill="#fff"/><path d="M180.93,51.27v7.06h.3q5.85-8.62,13.22-8.63,7.91,0,12.7,8.06t4.8,21.7q0,13.16-4.92,21.25t-12.58,8.08q-8.1,0-13.22-9.29h-.3v30.18H163.42V51.27Zm13.52,27.59q0-13.71-6.94-13.71-6.58,0-6.58,13.83,0,14.24,6.58,14.24Q194.44,93.22,194.45,78.86Z" fill="#fff"/><path d="M215.69,51.27H233l4.4,14.43q2.29,7.6,4,14.91h.3q1.38-6.94,2.29-10l5.86-19.38h17.56l-23.66,78.41h-17.5l7.12-23.6Z" fill="#fff"/><path d="M277.14,26.22h37V43.49H295.43V58.21h16.48V74.93H295.43V106.8H277.14Z" fill="#fff"/><path d="M345,49.34q12,0,18.29,8t6.28,22.24q0,14-6.52,21.58t-18,7.63q-11,0-17.53-7.78T321,79.58q0-14.25,6.19-22.24T345,49.34Zm.13,43.76a5.53,5.53,0,0,0,5.16-3.2Q352,86.7,352.05,79t-1.69-10.75a5.46,5.46,0,0,0-5.07-3.08,5.55,5.55,0,0,0-5.07,3q-1.75,3-1.76,11Q338.46,93.1,345.17,93.1Z" fill="#fff"/><path d="M400.82,49.34q12,0,18.29,8t6.27,22.24q0,14-6.52,21.58t-18,7.63q-11.06,0-17.54-7.78t-6.49-21.43q0-14.25,6.19-22.24T400.82,49.34Zm.12,43.76a5.53,5.53,0,0,0,5.16-3.2q1.72-3.2,1.72-10.92t-1.69-10.75a5.46,5.46,0,0,0-5.07-3.08,5.55,5.55,0,0,0-5.07,3q-1.75,3-1.75,11Q394.24,93.1,400.94,93.1Z" fill="#fff"/><path d="M463.35,21.76h17.44v85H463.23V99.5H463q-5.87,9.18-13.22,9.17-7.72,0-12.47-8.08T432.57,79q0-13.47,4.82-21.49t12.74-8q7.19,0,13.22,8.27Zm0,56.86q0-13.71-6.64-13.71-6.82,0-6.82,14.55,0,6.47,1.84,10t5.1,3.53q3,0,4.77-3.74T463.35,78.62Z" fill="#fff"/></g></g></svg>