<svg xmlns="http://www.w3.org/2000/svg" xmlns:xlink="http://www.w3.org/1999/xlink" width="500" height="140" viewBox="0 0 500 140"><defs><linearGradient id="linear-gradient" y1="70" x2="500" y2="70" gradientUnits="userSpaceOnUse"><stop offset="0" stop-color="#c33764"/><stop offset="0.13" stop-color="#c03869"/><stop offset="0.3" stop-color="#b63b79"/><stop offset="0.49" stop-color="#a74192"/><stop offset="0.69" stop-color="#9149b6"/><stop offset="0.89" stop-color="#7652e3"/><stop offset="1" stop-color="#6658fe"/></linearGradient></defs><g id="Layer_2" data-name="Layer 2"><g id="Layer_1-2" data-name="Layer 1"><rect width="500" height="140" fill="url(#linear-gradient)"/><path d="M22.63,26.22h37V43.36H40.92V58.21H57.16V74.93H40.92V89.6H59.75v17.2H22.63Z" fill="#fff"/><path d="M70.86,51.27h40.56l-17.56,41h16.41V106.8H68.63l17.44-41H70.86Z" fill="#fff"/><path d="M153.43,26.22h18.29V88.15h14.49V106.8H153.43Z" fill="#fff"/><path d="M196.65,34.61A9,9,0,0,1,199.37,28a9.26,9.26,0,0,1,13.09,0,9.28,9.28,0,0,1,0,13.13,9.28,9.28,0,0,1-15.81-6.55Zm.48,16.66H214.7V106.8H197.13Z" fill="#fff"/><path d="M228.52,21.76H246V58h.31a29.54,29.54,0,0,1,6-6.46,12,12,0,0,1,7.21-2q7.36,0,12.32,7.7t4.95,22.06q0,13.27-4.74,21.37t-12.28,8.08q-7.86,0-13.46-9H246v7.18h-17.5Zm30.9,57q0-13.83-7.06-13.83-6.33,0-6.34,13.34,0,7.66,1.66,11.2A5.52,5.52,0,0,0,253,93Q259.42,93,259.42,78.74Z" fill="#fff"/><path d="M303.91,51.27v9.3h.24q6.27-10.87,13.22-10.87a15.63,15.63,0,0,1,2.84.36V67.27a35.92,35.92,0,0,0-5.92-.55q-9.66,0-9.66,12.5V106.8h-17.5V51.27Z" fill="#fff"/><path d="M357.33,106.8V99.5h-.24a29.08,29.08,0,0,1-6.19,6.94,11.41,11.41,0,0,1-7,2.23q-7.92,0-12.62-8.08t-4.71-22q0-13.35,4.77-21.25t12.56-7.91a11.84,11.84,0,0,1,7.06,2.08,27,27,0,0,1,6,6.67h.25V51.27h17.56V106.8Zm0-28.06q0-13.83-6.76-13.83t-6.82,13.83q0,14.36,7.06,14.36Q357.32,93.1,357.33,78.74Z" fill="#fff"/><path d="M405,51.27v9.3h.24q6.29-10.87,13.22-10.87a15.53,15.53,0,0,1,2.84.36V67.27a35.82,35.82,0,0,0-5.92-.55q-9.66,0-9.65,12.5V106.8H388.17V51.27Z" fill="#fff"/><path d="M427.47,51.27h17.32L449.2,65.7q2.28,7.6,4,14.91h.3q1.39-6.94,2.29-10l5.86-19.38h17.56l-23.66,78.41H438l7.12-23.6Z" fill="#fff"/></g></g></svg>